/* XPM */
static char *_ff2b4f74c404441e4124252ea27510d8INXtYz7JoF4NCFu[] = {
/* columns rows colors chars-per-pixel */
"64 64 43 1 ",
"  c #2C2C2C",
". c gray20",
"X c #323232",
"o c #2D2D2D",
"O c #343434",
"+ c #313131",
"@ c #353535",
"# c gray17",
"$ c gray19",
"% c gray21",
"& c #2F2F2F",
"* c #393939",
"= c #3A3A3A",
"- c gray23",
"; c gray27",
": c #4C4C4C",
"> c #505050",
", c #464646",
"< c gray29",
"1 c #494949",
"2 c gray28",
"3 c #4B4B4B",
"4 c gray31",
"5 c #3C3C3C",
"6 c gray18",
"7 c #535353",
"8 c gray30",
"9 c #515151",
"0 c #4E4E4E",
"q c gray32",
"w c #434343",
"e c #414141",
"r c #444444",
"t c gray25",
"y c #373737",
"u c gray26",
"i c #484848",
"p c gray24",
"a c #3F3F3F",
"s c #3E3E3E",
"d c gray22",
"f c gray33",
"g c #2A2A2A",
/* pixels */
" ..X oooo   X.O  +@OOOOOOOOO@O.#$O@%O%@.X@@%@@O&&*=---===-=-=-=o",
"&;:>,<1<123,4:5.6;<777777777>8<&*48:>3449:4<40q*5wereee0<;tewt<y",
"&,3q:r2,,;;,73tO6u1qqqqqqqqq01<&*:=-i@tr4ye.epq=-eauttt01;ptts1d",
"&18q9000800qq8;@6u19qqqqqqqqq3w&=9as5uy9iapesp1=-08880040848080%",
"&qqqqy%%@@59qq9O+iw;qqqqqqqq<t1+=qi<23;q8ii<i20=-44000000000444%",
"&qqq7-*ddds9qq>O+;<w7qqqqqqq1;3+*<@@;opu:$p sXq=-28qqqqqqqqqq32y",
"&qqqq-****a9qq>O+;3u7qqqqqqq1r3+*quea,p93uu;ar3==92qqqqqqqqqq2iy",
"&qqqqp=---tqqq>O+;3u7qqqqqqq<;3+%q,ruiaq3;wit,3*->2qqqqqqqqqq2iy",
"&qqq7s----tqqq>O+;3w7qqqqqqq1;3+@4<<0i:09<:i339d->2qqqqqqqqqq2iy",
"&qqqqa5555eqqq>O+;3w7qqqqqqq1;3+*3p-2%t,4*e%a59==:2qqqqqqqqqqi2y",
"&qqqqtppppe9qq>O+;<uqqqqqqqq1;3+=9-adu.42a=e==2*-14qqqqqqqqqq83y",
"$>q99taassu9qq>@+i,wqqqqqqqq<t0X=>ure,a43;u,re:=pqqqqqqqqqqqqqqy",
"&u:7q::::::97:2@&t2qqqqqqqqqq<u6=3*diXt;>@t+t=q==<3333333333333%",
"&u:72twwwuwr7<u@6,3qqqqqqqqq433o=9as*;%q2spr-a1=pa;5asa84-tsetey",
"6u<<e;rrrr;a31uXosr9qqqqqqqq:i16=qrreis9<rwit;<=5prpsap:0=tsete%",
"#&$&       o$+$##.@@@@@@@@@@@@@#Xsssass5-ssssss.$y*dyyyddyydddd6",
" .X+.+.XXXX.+XXo6@@@O@%%%%O@@@@o Oyy%ydyyyyyyy@6#6+XXXXXXXX.X+o#",
"+>0;4i><843928w@dr8400>>>>04>3i.+e1t-e45=,0a-rtX&rwr>>>>>>49;ua ",
".>,<eauttete8;3%*1rqqqqqqqqqqw:O+8rrt4t3,4e,u90yXewu:qqqqqqiuuw&",
"&;i077qqq777q3,Od97qqqqqqqqqq79.+wrw>t<;4e;uq1ddOra@:qqqqq7ryt1X",
"$7u>qqqqqqqqqe9@y>qqqqqqqqqqqq4O$ut:t<,>u,;9ie*%%q3<9qqqqqq9<0fX",
"&8e>qqqqqqqqqe:.=>qqqqqqqqqqqq0@$i3;1;4err48eu,d@9q7qqqqqqq7qq7X",
"&9u>qqqqqqqqqr7%->qqqqqqqqqqqq0@+8;i;4e,r42tu<4d@9qqqqqqqqqqqqqX",
"&8e>qqqqqqqqqe3O->qqqqqqqqqqqq0@+wr24u;;>iuw<<ty@9qqqqqqqqqqqqqX",
"$fr>qqqqqqqqqwq%->qqqqqqqqqqqq0@+ta4t,e98tu;4,ty@9qqqqqqqqqqqqqX",
"$:t>qqqqqqqqqe:O->qqqqqqqqqqqq0@+<4u2eq2tw<0r,,d@9qqqqqqqqqqqqqX",
"$7r>qqqqqqqqqwf@*>qqqqqqqqqqqq0O+8u,e92uu<<u218d@9q>qqqqqqq7997X",
"$8e>qqqqqqqqqu3@y>qqqqqqqqqqqq9.&ewwq<aei:r:,1=d@:ay0qqqqqqi*w4X",
"$3<344440004><<Od99qqqqqqqqqqqqO+pa41tu<:r2,3us%Xwt-3qqqqq7,-t;$",
"$412rr;rrrr,2i<%d<wqqqqqqqqqq;0O$;0;-u<1e21<s;;y+uw;>qqqqqq4;we$",
"&3<e<1111118u12@y:>qqq9999q7q:<.&uiap2>5p,0ue2eO O=teuuuuuuus*X#",
"#### #######g###6@@@O@@@@@@O@O@  +XX.XX..XXX..+###gg############",
" .$$X.......&+&o$OO...Xo$X.O..& o666o66 o6oo&6& 6X..6X.OOO.6.OO6",
"&9,w09999999,1idu:8888<w<31<1:r#p814*:>s1>rr>,4O=74ri97777>w,4f@",
" i0tppppppp553>@e;,,,,;r1iwur1u#s>3qu>qr8q1<qi>O*<<;8>9qqq48,14O",
" iet;;;;;;;;r*>.trrrrrr;:1rwr1u#s>;iiiiiiiii2;>@yw1siiiiii22e2;O",
"&4si4444444>0d>.ar,,,,;;:1rwr1u#s9uuuuuuuuuuer9O+10;9qqqqqq>;8,&",
"$7awi11111111d7dt2i11ii,:1rr;1u#p9,1111111111,9@d001qqqqqq7q<4>%",
"$7ae;;;;;;;;;d7ye,,2i2,;:1rr;1u#s9uuuuuuuuueuw9O*7q1qqqqqq7q3q7%",
"$7a;333333333d7yywrrrrrt;wwwwe@ a9;,,,,,,,,,,r9@*qq<qqqqqq7q3q7%",
"$7ariiiiiiiiid7dd;12,22w<<<3<2d#s>;2222222222;9@*qq<qqqqqq7q3q7%",
"$7swiiiiiiiiid7yei2ue,1;2i1112w#s>r;;;;;;;;;,r9@*7q<qqqqqqq7<97@",
"$7ar111111111d7de<irui3r;rrrruu#s9;;;;;;;;;;,;9O@882qqqqqqq9i8:X",
"$faw222222222y7de<irui3r2,,,,wu#s>wrrr;rrrrrr;9@X,0a04>>>>>3e4w+",
"62ttr;;;;;rrrd9@u3iru23;i22222w#s4urrrr;;rr;ww>O*r3w1i11111,,13@",
"+;4uuuuuuueet:qyt<iru23r,,,,;,u#p4<7e4qr871<72>O=02u09qqqqq1w,9@",
"&3;;>q999999wt0Ote;;ur;tw;;;;2u 5:i0*30p20ww0r:O%38wa<:3333d,:3O",
"oXX$...OOO..$&.o+.OOO..&XOO.OO$#6$&$o$+6$$&$$$$  666o66666& 666 ",
"o@+$X@%%%%@+$$@oo..$+..+O@X&OOX##.XX+++XX+++XX&#6d=@X......+%*yo",
"&4a=e8qqq7>e5=>O%8wpsu22:ue*wr,#+<prrwwrrrrrus16d5q1:000000<34wO",
"6qete0qqqq4was9O%e,:8<ui;;r5uuw#Os<2qqqqqqq9r<5&*884rrrrrrrr>:>@",
"6qiirq7qqq93wiqO@t,33ia;r33eiia#.wr29qqqqqq9w1s&O24q777777qqq81X",
"&q14;qqqqq9:4<9O+*w22;pp5::ei2*#.;qqqqqqqqqqq7s&.4r7qqqqqqqqqw8 ",
"&q14;qqqqq9:4<9O%tr112t2r<3eiie#.;qqqqqqqqqqq7s&O9r7qqqqqqqqqr> ",
"&q14;qqqqq9:0<9O%r;ii,u21uu=euwg.;qqqqqqqqqqq7s&O9r7qqqqqqqqqr> ",
"&q14;qqqqq980<9O.2wt5w;u,,w*;,tgO;qqqqqqqqqqq7s&O9r7qqqqqqqqqr9 ",
"&q14;qqqqq980<9OOi,rp,2;1;r*w2r#.;qqqqqqqqqqq7s&O9r7qqqqqqqqqr9 ",
"&q14;qqqqq980<9O@5uwtte,,,<33u;#O;qqqqqqqqqqq7s&O9r7qqqqqqqqqr9 ",
"&q1>;qqqqq9:41q.@5<812,rrw<11uw#O;qqqqqqqqqqq7p6@9;qqqqqqqqq7r> ",
"&q14;qqqqq9301qO+*<81iw=y5eee** .,4>qqqqqqqq0>p6X3;qqqqqqqqqqw16",
"&q22w9qqqq9<r2qO@5<8ii,r;w11ie;#.e;;9qqqqqq>u2p6y:4qqqq7qqqqq43.",
"69uat4qqqq4eas>OOaewstr22wi22u,#Ou,,04444440w2t&*804;;;;;;;;424%",
"6qs*e07777>t--9OX<i;s2ir<,w=;iw#&iw;rrrrrrrwrwuoyt>1>99q99q3804O",
" &oo6&$$$$$66o6 ################################ OOX&&&&&&&&.%.#"
};
