/* XPM */
static char *_65b2c8d16434dc3b906c38b5bf5677deb1T9TYFz7tkm7NP[] = {
/* columns rows colors chars-per-pixel */
"50 50 235 2 ",
"   c #000102",
".  c #06090C",
"X  c #091218",
"o  c #16181B",
"O  c #1C1D23",
"+  c #1E2129",
"@  c #07263B",
"#  c #0A253C",
"$  c #192B33",
"%  c #25242A",
"&  c #272B35",
"*  c #342F34",
"=  c #2E333D",
"-  c #4B1E18",
";  c #5A312D",
":  c #7A362A",
">  c #703730",
",  c #794233",
"<  c #0C2742",
"1  c #0E2B43",
"2  c #122D45",
"3  c #142D49",
"4  c #0F3349",
"5  c #173348",
"6  c #16324B",
"7  c #1A354C",
"8  c #1C3A53",
"9  c #1B3854",
"0  c #363B49",
"q  c #223D55",
"w  c #673E40",
"e  c #3D4244",
"r  c #25435C",
"t  c #2A465D",
"y  c #394757",
"u  c #294765",
"i  c #2E4C64",
"p  c #324C67",
"a  c #2D556F",
"s  c #34536C",
"d  c #39576A",
"f  c #3A546D",
"g  c #375575",
"h  c #3D5B74",
"j  c #3E5D7B",
"k  c #3D6177",
"l  c #3E617D",
"z  c #4B4E57",
"x  c #465957",
"c  c #6B4447",
"v  c #69504D",
"b  c #7A5947",
"n  c #78604E",
"m  c #6D6A59",
"M  c #584E61",
"N  c #475666",
"B  c #435D75",
"V  c #435E7B",
"C  c #4A5C7E",
"Z  c #6A5661",
"A  c #576C6B",
"S  c #54686C",
"D  c #44617E",
"F  c #4A637C",
"G  c #4B697F",
"H  c #586C73",
"J  c #686468",
"K  c #65786A",
"L  c #777C69",
"P  c #667C74",
"I  c #9C2F1D",
"U  c #AB321C",
"Y  c #883628",
"T  c #9B3725",
"R  c #893E34",
"E  c #A73A27",
"W  c #AC3D2A",
"Q  c #B43D26",
"!  c #B23E2A",
"~  c #A53F30",
"^  c #86443D",
"/  c #9C4935",
"(  c #9A4538",
")  c #A3402F",
"_  c #AC412D",
"`  c #B7442B",
"'  c #B4422D",
"]  c #BB442D",
"[  c #A34334",
"{  c #AC4432",
"}  c #A84939",
"|  c #B44532",
" . c #BA4632",
".. c #B44936",
"X. c #BC4A34",
"o. c #BD4C39",
"O. c #AA523D",
"+. c #BD513B",
"@. c #C6462D",
"#. c #D44A2F",
"$. c #C44A33",
"%. c #CB4C34",
"&. c #C44E3A",
"*. c #CB4C38",
"=. c #D44D35",
"-. c #C4523D",
";. c #CE543B",
":. c #CC523C",
">. c #D5553B",
",. c #D3543D",
"<. c #874742",
"1. c #895946",
"2. c #835D4A",
"3. c #93524C",
"4. c #985548",
"5. c #A54E41",
"6. c #A9574B",
"7. c #B55344",
"8. c #BD5444",
"9. c #BA594B",
"0. c #AF5D55",
"q. c #866A58",
"w. c #936553",
"e. c #B56554",
"r. c #8A7A69",
"t. c #CB5641",
"y. c #C65947",
"u. c #CD5942",
"i. c #D35640",
"p. c #D65A44",
"a. c #DB5B44",
"s. c #D35C48",
"d. c #DC5E49",
"f. c #E35E47",
"g. c #D7604B",
"h. c #DC624C",
"j. c #D56552",
"k. c #E2614B",
"l. c #E8614A",
"z. c #E26751",
"x. c #E76A54",
"c. c #74826E",
"v. c #6C8278",
"b. c #7A8875",
"n. c #878B78",
"m. c #978A77",
"M. c #978A78",
"N. c #86927E",
"B. c #3A5C81",
"V. c #3E6281",
"C. c #435F82",
"Z. c #4F5F81",
"A. c #446382",
"S. c #4A6482",
"D. c #4D6984",
"F. c #456A88",
"G. c #4C6D8C",
"H. c #546687",
"J. c #526B84",
"K. c #526C89",
"L. c #55728B",
"P. c #5A7589",
"I. c #4D7091",
"U. c #597996",
"Y. c #647A86",
"T. c #627D95",
"R. c #6D828B",
"E. c #75878D",
"W. c #6A8397",
"Q. c #65839C",
"!. c #778A94",
"~. c #7E9191",
"^. c #6A88A5",
"/. c #718EAA",
"(. c #7693AC",
"). c #6F92B0",
"_. c #7594B3",
"`. c #7997B6",
"'. c #7B9BBA",
"]. c #7C9FC3",
"[. c #7FA2C8",
"{. c #869482",
"}. c #899786",
"|. c #989985",
" X c #829494",
".X c #8D9C93",
"XX c #83969B",
"oX c #8C9C9B",
"OX c #919E9A",
"+X c #8FA38D",
"@X c #94A38D",
"#X c #9CA58D",
"$X c #94A393",
"%X c #99A593",
"&X c #9CAB95",
"*X c #94A29A",
"=X c #98A798",
"-X c #9EAB9B",
";X c #9EB29C",
":X c #A4AC96",
">X c #A2AE9D",
",X c #A5B39D",
"<X c #A9B69E",
"1X c #ABB99E",
"2X c #879AA3",
"3X c #809EBB",
"4X c #9AAAA7",
"5X c #92A5A8",
"6X c #83A2BC",
"7X c #8DA3B9",
"8X c #A1ADA3",
"9X c #A0AEA8",
"0X c #A5B3A2",
"qX c #AAB6A1",
"wX c #A4BCA5",
"eX c #ACBAA2",
"rX c #A6B3AA",
"tX c #ADBBAB",
"yX c #B1BDA6",
"uX c #B2BEAA",
"iX c #A9B7B3",
"pX c #B3BFB2",
"aX c #AAC2A9",
"sX c #ADC2AA",
"dX c #B3C2AA",
"fX c #B9C4AE",
"gX c #B6C7B2",
"hX c #BAC5B2",
"jX c #C1CEB3",
"kX c #85A5C3",
"lX c #86A7C7",
"zX c #85A9C9",
"xX c #8BACCB",
"cX c #92AFCB",
"vX c #C7D4C3",
/* pixels */
"p s p y 7 @ # 4 8 A.I.G.I.U.^.I.F.I.I.U.U.U.U.I.F.l j j k h g s i u r 9 q r 9 9 3 5 3 9 1 1 1 9 g p ",
"F F F F d 2 @ 7 L.`.'.xXzXxX[.xXzXzX[.[.zXzXzXzXkX'._.(././.^.^./._._./.).^.^.^.T.U.U.T.S.6 5 D._._.",
"C C D D F 8 2 i `.cXkX_.(.Q.U.^.'.[.[.xXkX'.5XiXiX5X*X4X-XoXU.D.L.U.^.(.'.'.6X6XkXlXlXxX_.q 5 W.zXlX",
"A.C D B F 5 4 L.kX3X^.C D.j l L.Q.~.(.4X2XE.*XhXrX4X-XtXtX8X~.R.!.Y.P.L.j j V j S.G.H.U.Q.t i 6X3XlX",
"F F F D F 4 8 Q.xX^.T.2X4XOXP .XaXgXdXjX:XL @XfXeXyXyXeXyXeXN.c.dXtXrX4X~.P.P.S.V D D h S.r j 6X_._.",
"V B F D B $ r Q.^.T.tXhXhXhXK b.tXsX1XdX%Xc.@XyXqXeXeX1X<X<X{.b.eXyXeXuXN.}.tXXXP.l A.k A.u d U.F.B.",
"S.A.D D D 2 i G D !.uX<XqXpXN.K &XeX1XdX@Xc.@XdXeXeXeX1X,X&Xb.b.wXyXqX@Xm ;XfXdX0XD.D S.G.i u j C.j ",
"V C G F d @ s G C XXqXeXyXuX&XL %XdXeXhX&Xc.&XgXeXsXaXdXsX#Xb.}.eXsX,XK c.sX1XeXhXP.j j D i a L.l S.",
"V G.V V B $ d D k oX1XeXwXyXyXb.}.tXtXpXN.m {.=X@X#X:X&X&Xn.m +XeXeX+XK #XyXeXeXeXP.V V Z.f i C D F.",
"C h B D t @ i D.D.*XeXtXwX1XfXb.m N.|.r.1.: b 1.w.w.w.4.1.4., q.m.m.L =XuX1XeXeX>XJ.S.V K.q q P.g D ",
"D.C D.F r @ 8 d S.~.}.:X1X<X@X, , 4.~ I ( 7.E U X.3.~ U W 7.~ I ! W 1.:XdX1X,X>X}.F S.D C p 2 B D.S.",
"j A.D i 2 # 4 4 d ~.N.N.#XN., Q y.y.t.@.5.3.{ Q ;.9.{ U | 0./ ] $.8.} 7.|.;X<X>X}.S.C S.C 3 # q D F ",
"s g u t L.Q.k $ 5 9XvXuX-XK ^ #.0.3.8.| $.a.| E a.f.$.T $.l.$.W $.5.( @.b sXvXvX9XC B g 7 i F 5 t f ",
"< < @ D.(.W.F F.r *XuXuXgX@X4.;.,.t.t.' *.f.$.! >.d.! E $.h.:.W %.a.#.` r.vXuXuX8Xq 5 < d cXW.G 1 2 ",
"5 9 4 9 r 8 5 8 8 .XeX<XdX$X4.,.a.,.-.| t.j.5.R 6.6.R > b 3.6.' %.,.%.X.r.tXqXqX>X2 # < P.G h t 1 1 ",
"_.^.T.L.S.P.R.R.W.4XyXeXdX&X6.u.a.=.$.] 3.Z z M N y p N y y c Q %.,.%.o.r.dXeXeX8XS.s q d i i t r i ",
"[.[.zXxXxXcXcXlXxXiXeXeXuX-Xw.u.p.>.*.] <.$ X 0 0 . & y X O c Q ;.,.%.o.n.tXeXeXtXkX/.T.T.^./.'.'.6X",
"[.].].`.)._.`.'.'.rXeXeXdX:XJ Z 9.a.t.] <.O   0 =   + 0 . o c ! ;.,.#.-.m.sXqX<X0XK.H.H.S.D.G.L.Q.Q.",
"^.I.B.B.F.K.A.g g 5X<XeXuX>XB 0 5.d.t.] <.O   & =   O 0 . X > { ;.>.;.8.n.tX1XeX-XD.A.C.D V j h k A.",
"B.B.A.A.B.C.A.G.C. X<XeXdX:Xx 0 ^ z.u.' ^ %   & &   O = . O > ! ;.>.%.+.m.tX1X<X=XH.C.C.S.S.D D C.j ",
"V.V.F.V.l D A.j C. X<XeXdX:Xz + 3.k.;.' ^ %   % &   o & X o ; $.;.;.%.+.m.aXeXqX%XH.C.C.C.A.A.S.A.A.",
"B.B.B.C.D A.S.A.S. X<XeXdX&Xe O 4.k.-.] ^ % o % % O % % o o ; :.=.>.=.+.m.aXeXeX-XH.Z.S.A.C.D j A.A.",
"F.V.A.A.D D V V D  X<XeXyX,Xb Y @.a.t.| _ > - - > > : : [ ..&.-.>.>.,.+.|.sXeXeX-XS.C.C.A.S.A.C.D D ",
"j j l S.l D S.D C. XqXeXyX>X1.@.#.h.s.[ -.k.$.%.f.,. .X.f.,.@.$.,.a.p.-.M.sXeXeX8XK.S.C.C.A.C.A.D V ",
"C.A.D l D D D D A.XX<X1XdX0X2.Q a.x.-.I $.p.$.] ,.>.W { a.*.@.$.7.b 7.t.|.tXeXeX>XK.S.C.B.D A.A.D D ",
"A.A.S.D D D D D V XX<X1XeXwX2.! a.a.` T X.a.-.o.i.;.E | d.,.@.$.6.z R t.|.tXeXeX>XH.C.C.A.A.S.A.D D ",
"D C.V l D D D D D XXqX<XdXwX2. .h.=.&.[ X.a.y.t.a.t.W { h.=.@.$.8.v / u.|.sXeXqX>XH.C A.F A.D k A.F.",
"A.A.D D D D A.D C XXqXeXeXwX2.$.a.>.s.{ X.,. .&.k.j._ { ,.%.@.%.7.c ~ u.|.eXeXeX>XS.D S.D C D F C.C.",
"S.A.D A.D D G D S.E.0XeXsXwX2.o.a.a.s._ X.,. .o.x.j.{ | >.;.%.@.7.; [ u.|.tXeXeX>XJ.C B B V B D A.V ",
"C.V V C D D D D C E.0XqXyXwX2.-.a.g.y.W $.,.X.t.x.j.)  .a.>.;.@./ % Y u.|.tXeXeX8XK.C C F J.F D S.A.",
"C.H.D.D.F.F.F.G S.!.0XeXyXwX2.o.p.d.-.Q %.i. .o.z.j._ X.p.;.;.$.-.^ _ y.#XyXeXeX8XC B V B F D d d d ",
"u u u u r 9 9 5 9 H >XeXeXaX2.o.a.p.%.] ;.;.' X.j.s.W o.a.;.;.$.,.,.,.y.|.dXeXeX=XC.B q 7 5 5 $ @ @ ",
"I.I.F.C.j a u u u P.8XeXyXtXb o.a.a.*.] =.i.W X.z.u._ -.p.>.-.] ,.i.,.y.|.dXeXtX4XQ.K.7 3 2 < 2 1 t ",
"xXxXxXxXzX'._.).T.2XqX<XyXwXn o.a.a.&.! ;.i._ X.k.:.W :.>.%.-.-.a.;.;.y.|.sXeXeX.XD B 5 3 1 2 9 W.6X",
"_._.`.].'.'.`.`.`.7XeXeXeXwX2.X.a.d.&.Q ;.,._ $.h.&.W t.a.%.u.u.,.;.=.+.|.dX1XeX.X5 1 t B 8 # T.'.xX",
"F.V.B.B.V B.A.A.C.W.9X,XdXwX1.@.a.s.t.W :.u.W X.d.&.W -.p.:.t.*.p.;.>.+.|.dXyX<XoX1 K.`.F 7 q C A.G.",
"A.D A.A.D D C.V C T..X|.}.b.Z w.s.h.&.W t.i.E  .d.:.E X.h.,.:.&.p.,.>.+.n.N.{.N.!.g Q.P.B 7 d K.l A.",
"j j V A.A.A.A.A.L.4XuX:X:X}.N M 7.k.t.W ;.s.) ..a.;.! X.d.i.-.-.p.,.%.9.,XeXqXtX8XY.B D.d 7 B B A.D ",
"S.S.D D C C D F P.pXyX1XdX%XN 0 5.f.t.' :.h...X.d.;.` X.h.p.-.o.h.i.;.O.:XgXtXeXqXW.t B 7 q G B D D ",
"V C D F D D D A.J.4XyXdXjX&Xy = } f.i.! t.j.X.X.p.,.] X.h.p.o.o.d.,.;.) |.gXaXdX>XE.t 3 $ t F F D D ",
"D C D D C C C.A.D  X%X|.&X{.= % [ f.s...t.d. .! s.i. .t.h.p.X...h.,.;./ b.;X@X}..XK.t # # p G B D D ",
"A.D F A.D A.F !.2X*X{.}.-X{.* : -.h.y...t.z.! ! p.p. .8.h.p.` X.a.,.;./ L }.b.}.5XXXY.2 2 f F N A.S.",
"D D D D D A.D 8XhXtXqXyXdX1X, } k.k.y.{ t.x. .I p.x.&...k.h.X.X.d.a.,./ %XwX<XhXuXuXqX< 5 f F B C.C.",
"D D D D D D D =XuXyXuXuXdXgXL | y.0.j.X.7.e.} Q y.0.y.&.y.0.%.$.p.0.-.e.aXfXfXfXeXyX>X# 3 N F F A.C.",
"A.A.l A.D D A.*X<XyXwXwXeXgXL I ( <.7.[ R 3.R T [ ^ ~ W ( <.' E ..^ { 4.wXeXeX1XeX<X|.< 7 B C F A.B.",
"D l l l l D D =X<X1X1X1XqXaXc.v q.n q.m b q.q.q.q.r.q.q.q.m q.2.q.q.n n qXeXeX1XeXeX>X3 7 B B C A.A.",
"V.l V.A.D l D  X.X.X.X*X*X.Xb.v.v.v.K v.P P v.v.v.v.v.v.v.P v.P P P K K OX8X-X=X$X*X%X3 3 B B F G F.",
"V.l A.F.F.D D R.E.R.!.~.~.R.P P A y x x x x H H H H H S H S S H S S S H !.XX X!.E.E.T.q 3 B F F l k ",
"D D C j C.C C C Z.C C Z.C.S.F.a 5 4 $ $ $ = B G j A.S.V S.S.l V.V.F.C.F.B.B.S.D S.D k 8 @ a k k G k ",
"S.D D.F D.Z.C H.H.Z.Z.S.D A.V.u @ @ $ $ $ $ B G k G D V D S.l l V.A.V.F.C.V S.A.D D D 9 @ i l k k k "
};