/* XPM */
static char *_778f1573a0d48cca406d72cfa5ee1a2MH4Ei38HqmiA6gxq[] = {
/* columns rows colors chars-per-pixel */
"64 64 156 2 ",
"   c None",
".  c #1C1615",
"X  c #1F1818",
"o  c #251D1D",
"O  c #281F1E",
"+  c #29201F",
"@  c #252224",
"#  c #2C2524",
"$  c #2C2728",
"%  c #2E2A2A",
"&  c #312625",
"*  c #332827",
"=  c #322C2C",
"-  c #392E2C",
";  c #33302F",
":  c #3E312D",
">  c #2B2E37",
",  c #2B313C",
"<  c #353333",
"1  c #3B3434",
"2  c #30323C",
"3  c #3F3D3D",
"4  c #40302E",
"5  c #423431",
"6  c #483631",
"7  c #453836",
"8  c #4A3C37",
"9  c #4C3F3A",
"0  c #553F39",
"q  c #4D413D",
"w  c #53413C",
"e  c #263546",
"r  c #2B3647",
"t  c #2C3A4E",
"y  c #383C43",
"u  c #2E425C",
"i  c #33465C",
"p  c #3E4C5B",
"a  c #2E4460",
"s  c #304560",
"d  c #344A66",
"f  c #344D6A",
"g  c #3F5266",
"h  c #3D516A",
"j  c #365271",
"k  c #3A5776",
"l  c #3D5977",
"z  c #39587B",
"x  c #434245",
"c  c #42454A",
"v  c #4D4B4A",
"b  c #5B4B44",
"n  c #484F54",
"m  c #4B5054",
"M  c #595357",
"N  c #51565A",
"B  c #624A43",
"V  c #604E48",
"C  c #63524C",
"Z  c #615856",
"A  c #6E5A51",
"S  c #625C5B",
"D  c #6B5B58",
"F  c #735E56",
"G  c #776056",
"H  c #756259",
"J  c #7A655E",
"K  c #41526A",
"L  c #555E63",
"P  c #576166",
"I  c #5A656B",
"U  c #54656E",
"Y  c #586972",
"T  c #5B6D79",
"R  c #5F727C",
"E  c #656060",
"W  c #63616A",
"Q  c #686069",
"!  c #756563",
"~  c #7A696E",
"^  c #7D6B64",
"/  c #7F746F",
"(  c #7B797B",
")  c #846A5F",
"_  c #846C62",
"`  c #877066",
"'  c #8D7367",
"]  c #87736B",
"[  c #8D7469",
"{  c #8F786C",
"}  c #927367",
"|  c #91766B",
" . c #987A6E",
".. c #947A6D",
"X. c #8D7977",
"o. c #957B71",
"O. c #997F73",
"+. c #917D78",
"@. c #87817F",
"#. c #9E8375",
"$. c #9D847B",
"%. c #A18174",
"&. c #A7877A",
"*. c #A5897B",
"=. c #B48B7C",
"-. c #BD8D7D",
";. c #637A86",
":. c #6A7E87",
">. c #657E8B",
",. c #7D7A80",
"<. c #67818D",
"1. c #74838A",
"2. c #6C8895",
"3. c #6E8B98",
"4. c #938681",
"5. c #9F8A82",
"6. c #9B9898",
"7. c #A28E88",
"8. c #B48E81",
"9. c #A6948D",
"0. c #AD9488",
"q. c #B49485",
"w. c #B99383",
"e. c #B29789",
"r. c #BC9B8C",
"t. c #A09E9D",
"y. c #BCA093",
"u. c #A8A7A7",
"i. c #BBABA3",
"p. c #B9B1AC",
"a. c #B2B2B3",
"s. c #BFBCBA",
"d. c #CB9685",
"f. c #C29E8D",
"g. c #C99787",
"h. c #D39D8B",
"j. c #D99F8D",
"k. c #C5A08F",
"l. c #C8A08F",
"z. c #C6A392",
"x. c #CAA492",
"c. c #CCA997",
"v. c #CEAB99",
"b. c #D1A895",
"n. c #D3AD9A",
"m. c #D6B19E",
"M. c #D9B19E",
"N. c #DBB4A1",
"B. c #DFB9A6",
"V. c #E4B9A5",
"C. c #E5BEAA",
"Z. c #ECC3AE",
"A. c #CDCECE",
"S. c #D9DADA",
"D. c #EBEBEC",
"F. c #E3E4E4",
/* pixels */
"                                                                                                                                ",
"                                          X . o o o .                                                                           ",
"                                          . . # . # - #                                                                         ",
"                                          5 F _ r.N.C. .&                                                                       ",
"                                          C.Z.Z.Z.Z.C.n.4 O                                                                     ",
"                                          C.Z.Z.Z.Z.Z.O.& +                                                                     ",
"                                          w.Z.m.c.m.w.l.* +                                                                     ",
"                                          =.| { H 4.$.M.' x.                                                                    ",
"                                          &.9.! z.r.N._ | B.                                                                    ",
"                                          =.Z.N.N.q.q 8 F c.                                                                    ",
"                                          G ..A S 6.s.C 7                                                                       ",
"                                            8 4.D.D.i.b &                                                                       ",
"                                            O 0.p.4.O.: O                                                                       ",
"                                            o 5 = + # o                                                                         ",
"                                              o O O # `                                                                         ",
"                                                o . b V.( 3.c $ r                                                               ",
"                                                  S m.Z.7.<.= , z f                                                             ",
"                                                U :.r.Z.1.Y - r z j                                                             ",
"                                                $ T y.k.T n * , d j                                                             ",
"                                              r o g e.x.W c - , d d >.                                                          ",
"                                              t o , 5.n.X.x = y d K 2.                                                          ",
"                                              u o o X.w.8.c & x P I ;.;.                                                        ",
"                                              h o o D 8.b.M = 1 P N R >.                                                        ",
"                                    F.        I < O 1 r.v.! = - N p i l k                                                       ",
"                                              L m + # #.0.] - * 1 > d z j                                                       ",
"                                      A.        I c o 7 7.! $ # # o s j j                                                       ",
"                                      a.        s i > + o.! - * * o   h ,.                                                      ",
"                                        S.      d d a @ 0 l.O.- = o   h.Z.                                                      ",
"                                        a.      a d a @ _ n.V.' = +   h.C.                                                      ",
"                                        : r.x.    Q ~ 5 _ C.Z.C.C # N.Z.V.                                                      ",
"                                        v.M.x.    -.j.B J #.N.Z.C.v.Z.Z.Z.                                                      ",
"                                        f.N.n.    j.g.B 9 q.] r.V.Z.Z.Z.m.                                                      ",
"                                        8.m.M.f.d.j.j.w < ] M 1 * b *.                                                          ",
"                                          Z.m.) j.j.j.6 v ( E S = 5                                                             ",
"                                            r.. d.d.  % 1 t.u.3 $ $                                                             ",
"                                                      @ < % < 1 < < =                                                           ",
"                                                      # ; % % @ $ < <                                                           ",
"                                                      # 1 @ @ $ $ < <                                                           ",
"                                                      $ 1 %   $ = < <                                                           ",
"                                                      < 1 $     = < ;                                                           ",
"                                                      1 2       $ < <                                                           ",
"                                                      1 <       $ 1 <                                                           ",
"                                                      1 ;       # < <                                                           ",
"                                                      1 =       # < <                                                           ",
"                                                      < #         ; <                                                           ",
"                                                    < < #         = <                                                           ",
"                                                    = <           = <                                                           ",
"                                                    % =           = <                                                           ",
"                                                    $ $           # =                                                           ",
"                                                    < $           # <                                                           ",
"                                                    < $           $ <                                                           ",
"                                                    < #           $ <                                                           ",
"                                                    <             % <                                                           ",
"                                                    ;             % <                                                           ",
"                                                    =             % <                                                           ",
"                                                  < =             % <                                                           ",
"                                                  % %             % <                                                           ",
"                                                  $ #             $ %                                                           ",
"                                                  @ o             $ @                                                           ",
"                                                + +               . o                                                           ",
"                                            o # # +               . o # # O                                                     ",
"                                                                                                                                ",
"                                                                                                                                ",
"                                                                                                                                "
};
