/* XPM */
static char *b2JqMg__[] = {
/* columns rows colors chars-per-pixel */
"60 60 59 1 ",
"  c #4E342E",
". c #51362E",
"X c #55392D",
"o c #5A3C2C",
"O c #4F3532",
"+ c #503632",
"@ c #5F402A",
"# c #6C4B27",
"$ c #654529",
"% c #6B4A28",
"& c #724F26",
"* c #745225",
"= c #795625",
"- c #7D5824",
"; c #8D661F",
": c #946C1E",
"> c #9C721C",
", c #A2771C",
"< c #A67A1B",
"1 c #AB7E1A",
"2 c #845E22",
"3 c #856022",
"4 c #886221",
"5 c #BD8C16",
"6 c #B18218",
"7 c #C18F15",
"8 c #C59314",
"9 c #CF9C11",
"0 c #FE9700",
"q c #FE9901",
"w c #D7A30F",
"e c #DBA50F",
"r c #E4AC0D",
"t c #E8AF0C",
"y c #FDA402",
"u c #FDAB03",
"i c #ECB30B",
"p c #FDB305",
"a c #FDBD06",
"s c #F1B70A",
"d c #FDB608",
"f c #F5BA09",
"g c #FBBD09",
"h c #FEC106",
"j c #FDC30B",
"k c #FDC80F",
"l c #FDC413",
"z c #FDCB14",
"x c #FDCF1F",
"c c #FDD21C",
"v c #FDD522",
"b c #FDD925",
"n c #FDDE2D",
"m c #FDDF30",
"M c #FDE02E",
"N c #FEE332",
"B c #FEE738",
"V c #FEEB3B",
"C c None",
/* pixels */
"CCCCCCCCCCCCCCCCCCCCCCCCCCCCCCCCCCCCCCCCCCCCCCCCCCCCCCCCCCCC",
"CCCCCCCCCCCCCCCCCCCCCCCCCCCCCCCCCCCCCCCCCCCCCCCCCCCCCCCCCCCC",
"CCCCCCCCCCCCCCCCCCCCCCCCCCCCCCCCCCCCCCCCCCCCCCCCCCCCCCCCCCCC",
"CCCCCCCCCCCCCCCCCCCCCCCCCCCCCCCCCCCCCCCCCCCCCCCCCCCCCCCCCCCC",
"CCCCCCCCCCCCCCCCCCCCCCCCCCCCCCCCCCCCCCCCCCCCCCCCCCCCCCCCCCCC",
"CCCCCCCCCCCCCCCCCCCCCCCCCCCCCCCCCCCCCCCCCCCCCCCCCCCCCCCCCCCC",
"CCCCCCCCCCCCCCCCCCCCCCCCCCCCCCCCCCCCCCCCCCCCCCCCCCCCCCCCCCCC",
"CCCCCCCCCCCCCCCCCCCCCCCCCCCCCCCCCCCCCCCCCCCCCCCCCCCCCCCCCCCC",
"CCCCCCCCCCCCCCCCCCCCCCCCCCCCCCCCCCCCCCCCCCCCCCCCCCCCCCCCCCCC",
"CCCCCCCCCCCCCCCCCCCCCCCCCCCCCCCCCCCCCCCCCCCCCCCCCCCCCCCCCCCC",
"CCCCCCCCCCCCCCCCCCCCCCCCCCCCCCCCCCCCCCCCCCCCCCCCCCCCCCCCCCCC",
"CCCCCCCCCCCCCCCCCCCCCCCC+&--------*.CCCCCCCCCCCCCCCCCCCCCCCC",
"CCCCCCCCCCCCCCCCCCCCCCX$%wgggfgffge#$XOCCCCCCCCCCCCCCCCCCCCC",
"CCCCCCCCCCCCCCCCCCC+XX2rtghhhhhhhhgir3XX+CCCCCCCCCCCCCCCCCCC",
"CCCCCCCCCCCCCCCCCC+ ,9ehhhhhhhhhhhhhhr91++CCCCCCCCCCCCCCCCCC",
"CCCCCCCCCCCCCCCCC+X>thhhhhpyuuuuuphhjhhi<X+CCCCCCCCCCCCCCCCC",
"CCCCCCCCCCCCCCCCO@:ihhapupy00qq00qpppahhi>oOCCCCCCCCCCCCCCCC",
"CCCCCCCCCCCCCCCOo4fjhap0qqqyyqqyyqqq0ugghg:oOCCCCCCCCCCCCCCC",
"CCCCCCCCCCCCCCOX:fjhauqqqphjhfjjgp0000ughhf>X+CCCCCCCCCCCCCC",
"CCCCCCCCCCCCC+.>ihhauq00qavNbknNcp0000quahhs<.+CCCCCCCCCCCCC",
"CCCCCCCCCCCCCX,thhauqq00qpnVNkNVvp0000qquahhi1XCCCCCCCCCCCCC",
"CCCCCCCCCCCCC.9hhauqyuuuugbVMkNVcauuq0qqquahhwXCCCCCCCCCCCCC",
"CCCCCCCCCCCCX2ehauq0pkzccznVNvBVbzzjuyqqqquahr3XCCCCCCCCCCCC",
"CCCCCCCCCCCC$rhhp0qqpvVVVVVVVVVVVVNlkjuq0qquhhi%CCCCCCCCCCCC",
"CCCCCCCCCCCC$thhu000pvVVVVVVVVVBBVVBBzuq00quhhi%CCCCCCCCCCCC",
"CCCCCCCCCCCO$thuqq0qpllzzMVVNlllnVVVVcu00qqquhi#OCCCCCCCCCCC",
"CCCCCCCCCCC%5fhuqq00yyuuhMVVMdyplbVVVzu00q00yhf7#CCCCCCCCCCC",
"CCCCCCCCCCC-ghhuqqq00qqqgNVVMpquplVVVxp000q0uhhj3CCCCCCCCCCC",
"CCCCCCCCCCC-fhhu0q0qq00qgmVVNdypgcVVNzu00q00yhhg3CCCCCCCCCCC",
"CCCCCCCCCCC-ghhu00q0qq0qgBVVngggvVVBzhpqq0q0uhhg2CCCCCCCCCCC",
"CCCCCCCCCCC-fhau000qqqqqgmVVVmNNBVVBzaapqq00yhhg3CCCCCCCCCCC",
"CCCCCCCCCCC-ghju00q0qqqqgNVVmzzlnVVVMncpq000uhhg2CCCCCCCCCCC",
"CCCCCCCCCCC-hhhu0q00q00qjMVVmduplnVVVVbpqq00uhhh3CCCCCCCCCCC",
"CCCCCCCCCCC#8fhuqqq000qqaNVVmdqupzVVVVbpqq0qyhf8&CCCCCCCCCCC",
"CCCCCCCCCCCO$thuqq0qqyqygNVVndypdxVVVVbpqq0quhi# CCCCCCCCCCC",
"CCCCCCCCCCCC$thhu000pgjjkNVVNgddvBVVVVbpqq0uhhi#CCCCCCCCCCCC",
"CCCCCCCCCCCC$thhp00qpcNMNBVVVNNNBVVVVVbpqqquhhi%CCCCCCCCCCCC",
"CCCCCCCCCCCCX4ehguq0pbVVVVVVVVVVVVVVVbkpqquaht;oCCCCCCCCCCCC",
"CCCCCCCCCCCCC.9hhguqpzbbbbNVBbBVMbbbbzauquahhwXOCCCCCCCCCCCC",
"CCCCCCCCCCCCC.6ihhhyuppppabVMkNVcappppyqyahhi6XCCCCCCCCCCCCC",
"CCCCCCCCCCCCC+.,sjauyqqqqabVnkNVvpqqqqqyghhf1. CCCCCCCCCCCCC",
"CCCCCCCCCCCCCCOo>fjaauq0qpbVnkNVcp000quaahh>oOCCCCCCCCCCCCCC",
"CCCCCCCCCCCCCCCO@:fhhauqqakzzjzzkpq0quajhg>@OCCCCCCCCCCCCCCC",
"CCCCCCCCCCCCCCCCO@>ihhauquuuyuuyyyyuuahhf>@OCCCCCCCCCCCCCCCC",
"CCCCCCCCCCCCCCCCC+X<ihhgpuuuyuyuuupghhhi1oOCCCCCCCCCCCCCCCCC",
"CCCCCCCCCCCCCCCCCC+.<wrhhahahahhghhhhrw6.+CCCCCCCCCCCCCCCCCC",
"CCCCCCCCCCCCCCCCCCCOXX2iighhhhhhhhaii;XX.CCCCCCCCCCCCCCCCCCC",
"CCCCCCCCCCCCCCCCCCCCCCX%*ehagjgghhe*%oOCCCCCCCCCCCCCCCCCCCCC",
"CCCCCCCCCCCCCCCCCCCCCCCC.=332322;2=.CCCCCCCCCCCCCCCCCCCCCCCC",
"CCCCCCCCCCCCCCCCCCCCCCCCCCCCCCCCCCCCCCCCCCCCCCCCCCCCCCCCCCCC",
"CCCCCCCCCCCCCCCCCCCCCCCCCCCCCCCCCCCCCCCCCCCCCCCCCCCCCCCCCCCC",
"CCCCCCCCCCCCCCCCCCCCCCCCCCCCCCCCCCCCCCCCCCCCCCCCCCCCCCCCCCCC",
"CCCCCCCCCCCCCCCCCCCCCCCCCCCCCCCCCCCCCCCCCCCCCCCCCCCCCCCCCCCC",
"CCCCCCCCCCCCCCCCCCCCCCCCCCCCCCCCCCCCCCCCCCCCCCCCCCCCCCCCCCCC",
"CCCCCCCCCCCCCCCCCCCCCCCCCCCCCCCCCCCCCCCCCCCCCCCCCCCCCCCCCCCC",
"CCCCCCCCCCCCCCCCCCCCCCCCCCCCCCCCCCCCCCCCCCCCCCCCCCCCCCCCCCCC",
"CCCCCCCCCCCCCCCCCCCCCCCCCCCCCCCCCCCCCCCCCCCCCCCCCCCCCCCCCCCC",
"CCCCCCCCCCCCCCCCCCCCCCCCCCCCCCCCCCCCCCCCCCCCCCCCCCCCCCCCCCCC",
"CCCCCCCCCCCCCCCCCCCCCCCCCCCCCCCCCCCCCCCCCCCCCCCCCCCCCCCCCCCC",
"CCCCCCCCCCCCCCCCCCCCCCCCCCCCCCCCCCCCCCCCCCCCCCCCCCCCCCCCCCCC"
};
