/* XPM */
static char *_6644e37ed8a4dbbd77b3ddca58394e9apQZcGDsQcy2sxvL[] = {
/* columns rows colors chars-per-pixel */
"64 64 139 2 ",
"   c #393E41",
".  c #3E4346",
"X  c #41474A",
"o  c #444A4D",
"O  c #474D50",
"+  c #4A5154",
"@  c #4F5759",
"#  c #535B5E",
"$  c #575F61",
"%  c #5A6365",
"&  c #5E6769",
"*  c #5F686A",
"=  c #626B6D",
"-  c #656E70",
";  c #667173",
":  c #697375",
">  c #6C7678",
",  c #6F797B",
"<  c #717C7E",
"1  c #737E80",
"2  c #768184",
"3  c #798486",
"4  c #7A8688",
"5  c #7E8A8C",
"6  c #808C8F",
"7  c #828E90",
"8  c #859294",
"9  c #889597",
"0  c #899698",
"q  c #8D9A9D",
"w  c #909D9F",
"e  c #8F9DA0",
"r  c #919EA1",
"t  c #94A2A5",
"y  c #96A6A8",
"u  c #98A7AA",
"i  c #9BAAAD",
"p  c #9EADB0",
"a  c #9FB0B4",
"s  c #A0AEB1",
"d  c #A3B3B5",
"f  c #A5B6B9",
"g  c #A8B7BB",
"h  c #A6B8BB",
"j  c #ADBCBF",
"k  c #ADBEC1",
"l  c #B0BFC2",
"z  c #AEC0C4",
"x  c #B2C2C5",
"c  c #B4C5C9",
"v  c #B4C5C9",
"b  c #B7C9CC",
"n  c #B8CACE",
"m  c #B9CBCF",
"M  c #B8CCCF",
"N  c #B9CBCE",
"B  c #B7CBD0",
"V  c #B8CCD0",
"C  c #B9CCD0",
"Z  c #B9CDD0",
"A  c #BACDD0",
"S  c #BACED1",
"D  c #BBCED1",
"F  c #BACED2",
"G  c #BBCED2",
"H  c #BACED3",
"J  c #BBCFD3",
"K  c #BCCED1",
"L  c #BCCFD2",
"P  c #BCCFD3",
"I  c #BBCED1",
"U  c #BBD0D3",
"Y  c #BCD0D4",
"T  c #BDD0D4",
"R  c #BED1D4",
"E  c #BED1D5",
"W  c #BED3D7",
"Q  c #BED1D4",
"!  c #C1D3D7",
"~  c #C0D3D7",
"^  c #C1D5D8",
"/  c #C0D4D9",
"(  c #C1D5D9",
")  c #C1D6DA",
"_  c #C3D7DA",
"`  c #C3D7DB",
"'  c #C1D4D8",
"]  c #C3D8DB",
"[  c #C3D8DC",
"{  c #C4D8DC",
"}  c #C4D9DC",
"|  c #C4DADD",
" . c #C5DADE",
".. c #C6DADE",
"X. c #C6DBDF",
"o. c #C4D9DD",
"O. c #C7DCE0",
"+. c #C7DDE1",
"@. c #C7DCE0",
"#. c #C8DCE0",
"$. c #C9DDE1",
"%. c #C8DDE2",
"&. c #C8DEE2",
"*. c #C8DDE1",
"=. c #CAE0E4",
"-. c #CBE0E4",
";. c #CCE1E5",
":. c #CCE1E6",
">. c #CDE3E7",
",. c #CCE2E5",
"<. c #CEE4E8",
"1. c #CFE6EA",
"2. c #CEE4E8",
"3. c #D0E6EA",
"4. c #D0E7EB",
"5. c #D1E7EC",
"6. c #D2E9ED",
"7. c #D3E9ED",
"8. c #D4EBEF",
"9. c #D2E9ED",
"0. c #D5EBF0",
"q. c #D4ECF0",
"w. c #D5ECF0",
"e. c #D6EDF1",
"r. c #D7EFF3",
"t. c #D5ECF1",
"y. c #DAF1F6",
"u. c #DAF2F7",
"i. c #DAF3F7",
"p. c #DBF3F7",
"a. c #D9F1F5",
"s. c #DCF4F9",
"d. c #DDF6FB",
"f. c #DEF6FB",
"g. c #DEF7FC",
"h. c #DFF7FC",
"j. c #DCF5F9",
"k. c #E1FAFF",
"l. c #E1FAFF",
/* pixels */
"k.7.<.<.<.<.<.<.<.<.<.<.<.<.<.<.<.<.<.&.7 v <.<.<.<.<.<.<.<.<.1 y.<.<.<.<.<.<.<.1.H 1 %.5.B A B B A B B A B B Z B Z Z V V W a.p ",
"7.f 0 7 5 8 a q.q.q.0.] 0 7 7 7 9 ] q.U 2 z h q 8 7 7 7 7 5 0 - <.e 9 7 7 7 7 7 5 t 5 5.W e 1 1 1 1 1 1 1 1 1 1 1 1 1 1 3 k i O ",
">.0 2 < 2 t -.k.k.k.u.p 2 1 1 1 h j.k.q.9 z f i 1 1 1 1 1 = 5 - <.9 e 1 1 1 1 1 * e 3 x B B e 1 1 1 1 1 1 1 1 1 1 1 1 2 p y : + ",
"<.7 1 2 t r.k.k.k.4.p 1 1 1 2 f k.k.k.i.9 z d 1 1 1 1 1 1 1 7 - <.7 1 1 1 1 1 1 1 e 3 p 8 B / t 1 1 1 1 1 1 1 1 1 1 2 s u : , @ ",
"<.7 1 t 7.k.k.k.7.q 2 1 1 4 h j.h.k.k.X.7 x f 1 1 1 1 1 1 1 7 - <.7 1 1 1 1 1 1 1 e 4 p 1 9 l @.e 1 1 1 1 1 1 1 1 3 p u : , 1 @ ",
">.8 t r.k.k.k.q.8 1 1 1 4 Y d.k.h.g.] 8 4 k f 1 1 1 1 1 1 1 7 - <.7 1 1 1 1 1 1 1 e 3 a 1 1 3 k ) H P P R P R Z H V u - 1 1 1 @ ",
"<.p -.k.k.k.i.i 1 1 1 2 h d.k.k.h.@.0 4 4 l f 1 1 1 1 1 1 1 7 - <.7 1 1 1 1 1 1 1 e 3 p 1 1 1 4 <.R ) W ) W ) ) x p - 1 1 1 1 @ ",
"<.8.k.k.k.q.i 1 1 1 1 d d.k.k.k.%.5 1 4 4 x f 1 1 1 1 1 1 1 7 - <.7 1 1 1 1 1 1 1 e 3 p 1 1 1 1 <.&.k p p p p p 3 7 & 1 1 1 1 @ ",
">.&.d.k.7.8 1 < 1 3 f k.k.k.k.+.1 1 1 8 4 k f p 1 < 1 1 1 = 4 = <.0 t 1 1 1 1 1 % r 4 p 1 1 1 1 :.@.0 1 1 1 1 1 * 5 & 1 1 1 1 @ ",
"8.g g k d r r r q t f k k k j i r r r r $ k f e r r r r r r r = @.r r r r r r r r e 1 p 1 1 1 1 >.@.0 1 1 1 1 1 & 8 & 1 1 1 1 @ ",
"W 4 4 4 3 4 4 4 4 4 4 4 4 4 3 4 4 4 4 2 $ f 8 3 4 4 4 4 4 4 3 # H 4 4 4 4 4 4 4 4 1 1 p 1 1 1 1 >.+.0 1 1 1 1 1 & 7 & 1 1 1 1 @ ",
"h.+.K Z Z M R X.+.+.+.| Z Z Z Z Z { @.P 1 x [ A A A n K m K K , 0.H A H A A A Z H k 4 p 1 1 1 1 <.+.9 1 1 1 1 1 & 7 & 1 1 1 1 @ ",
"4.i 6 3 4 7 z u.p.p.p.U 7 4 4 4 q >.u.| 4 x g t 4 4 4 4 6 , 7 - <.q r 5 4 4 4 4 > r 3 p 1 1 1 1 <.+.0 1 1 1 1 1 * 7 & 1 1 1 1 @ ",
"<.7 1 1 4 U d.k.k.h.) 5 1 1 1 6 <.k.k.u.0 l f 8 1 1 1 1 < > 6 - 1.7 7 1 1 1 1 1 : e 3 p 1 1 1 1 <. .5 : - : : : $ 5 & 1 1 1 1 @ ",
">.6 1 2 f d.k.k.k.| 0 1 1 1 4 Z k.k.k.u.0 k f < 1 1 1 1 1 1 6 - <.7 1 1 1 1 1 1 1 r 4 p 1 1 1 1 <.Z 1 & & & & & & 0 & 1 1 1 1 @ ",
"4.8 < f d.k.k.k.&.5 1 1 1 7 Z k.k.k.k.A 7 z g 1 1 1 1 1 1 1 6 ; <.7 1 1 1 1 1 1 1 r 4 p 1 1 1 a p - - - - - - - - : , - 1 1 1 @ ",
">.9 g k.k.k.k.#.1 1 1 1 8 1.k.k.k.d.x 3 4 z h < 2 < 2 2 < 2 6 - 2.7 1 1 1 1 1 1 1 e 4 i 1 4 f i & 1 1 1 1 1 1 1 1 < = < - 1 1 @ ",
">._ p.k.k.l.| 5 1 1 1 8 +.k.k.k.d.i 3 4 4 z f 1 < < < < < < 6 - 2.7 1 1 1 1 1 1 1 e 4 a 3 l i = 1 1 1 1 1 1 1 1 1 < < - > ; < @ ",
">.8.k.k.k.) 0 1 1 1 4 Z h.k.k.k.z 3 1 4 4 z f 8 < 2 2 < 2 < 6 - 2.8 7 1 1 1 1 1 > t 3 a s i ; < 1 1 1 1 1 1 1 < 1 1 1 > > ; : @ ",
"4.! r.p.X.8 4 4 4 5 v p.j.u.u.M 4 4 4 q 3 z g t 4 4 4 4 4 < 9 - 2.q t 4 4 4 4 4 1 e 3 ] i = < < 1 1 1 1 1 1 1 < 1 1 1 1 > > > O ",
"&.0 9 9 8 3 4 4 4 4 8 0 0 0 0 5 4 4 4 4 + h q 4 4 4 4 4 4 4 4 # ! 4 4 4 4 4 4 4 4 2 > i $ & & = & & & & & & = & & & & & & # # > ",
"6 - = 2 # 2 f 2 - - - - - > 2 # 8 t < = = 6 3 : - - = ; - - ; - 5 - - - - = - - > < > , = ; = - - - - - - = - - - - - ; = - = 3 ",
"1 1 1 0 = 9 X.0 1 1 1 1 1 5 0 & i v 5 < < 8 z 4 1 2 0 r w w w r w w r w q t e 5 t t 3 1 < 0 w w e q 3 1 1 1 1 1 5 r w q r 4 1 1 ",
"1 1 < 9 & 9 &.0 1 1 1 1 1 5 0 & s v 6 1 1 2 4 > 1 1 q ! ! _ ^ ^ ^ ^ ^ ^ ^ ^ ) U 4 > , 1 q ! ^ ^ ) ! h 1 1 1 1 1 D ^ ^ ^ ^ j 6 1 ",
"4 9 9 4 = 7 d 8 9 9 9 0 0 8 2 ; q w 8 9 6 1 1 1 1 > = i j j j j j j j j j j j j f , < 6 ^ i 0 0 9 x l w s s s $.^ t 0 0 w r $ 2 ",
"5 & = ; < 1 , ; & ; t 2 & - ; 1 1 : = & < 4 2 7 5 1 < : i j j j j j j j j j j j 7 - < 8 ! w f x 2.! b x x c x x b =.X.l u 9 $ < ",
"= : : < 5 0 2 < ; ; & = : , 1 8 8 1 < : - > 0 | k 4 1 > < g j j j j j j j j j j 7 ; < 6 ! w g _ x s w q q w w w t f N ~ u 9 $ 2 ",
"1 5 q v b M v v 8 3 < 2 5 f v b b v f 5 2 1 r ) v z 9 1 > < i k j j j j j l j j 7 ; < 6 ! w c ! w i g j j j j j d t t _ u q $ < ",
"8 b n i t 6 i p W 3 , r Y h p 0 0 p g b < 1 t R j v v 8 < > : i j j j j j j j j 7 ; < 6 i d ;.d t j j j j j j j j g t i 3 6 = < ",
"i b 9 1 1 < 1 1 t & : x f 2 1 1 1 1 2 q & 1 q ^ j j x v 9 1 > = s j j j j j j j 7 - < 2 > 6 ..0 j j j j j j j j j j s 9 $ ; < < ",
"p v 5 1 1 1 1 1 9 & : v p 1 1 1 1 1 1 0 & 1 e ^ j j j v x 3 1 < , f j j j j j j 7 - < < < 8 ..0 j j j j j j j j j j s 9 = < 2 < ",
"p v 5 1 1 1 1 1 9 & : v p 1 1 1 1 1 1 0 & 1 e ) j j j j v k 5 1 > > s l j j j j 7 ; 2 2 < 9 ..q j j j j j j j j j j i 8 = < 2 < ",
"p v 5 1 1 1 1 1 9 & : v s 1 1 1 1 1 1 0 & < e ! j j j j j x ! 6 < , = i j j j j 7 - 1 1 1 0 #.0 k k j j j j j j j j s 0 = < < 1 ",
"p v 5 1 1 1 1 1 0 & : v s 1 1 1 1 1 1 0 & 2 q ! j j j j j j l ! 6 < < : i j j j 7 ; 1 1 1 e &.0 j j j j j j j j j j s 0 = 1 1 1 ",
"p v 8 1 1 1 1 1 r & : v d 2 < 1 1 1 2 q & 2 r ) l j j j j j j v j 4 < , < g j j 7 - 1 < 5 Z 4.0 j j j j j j j j j j s 0 6 t 6 < ",
"8 4 1 0 7 5 9 0 > - , 0 1 7 0 6 6 0 7 : : < w ^ j j j j j j j j c x 9 < > < i j 7 ; 1 5 v b | i t j j j j j j j j j r r < g ; < ",
"< > : & : 2 * & > 1 1 1 > = & < < & = > < 1 r ! j j j j j j j j j c b 7 < > : s 7 ; < 7 ! t t 9 w i g j j j j j g r r 3 9 q # < ",
"h 0 8 2 > : < 1 0 e x u 0 2 1 : : < 3 0 i 8 r ) j j j j l j j j j j l b 9 < , = $ ; 1 7 W q i 3 r u w q q q q q r w q 9 r 0 % 1 ",
"v +.b q 2 1 4 e @. .B W @.p 0 1 < 9 i &.K 6 9 x j j j j j j j j j j j x x 4 < < > < 1 7 ^ q h d ; 7 q 9 9 7 9 9 w < < g u 0 $ < ",
"4 9 y v > 5 v W 0 0 0 0 0 v f - q ^ v 0 6 < , - j j j j j j j j j j j j c j 6 < 1 1 1 6 ^ u 0 0 9 7 , # = = = 0 6 9 0 0 w r % 1 ",
"< 1 1 0 & 0 +.0 1 1 1 1 1 5 0 & a v 5 1 1 4 t 4 = 6 7 6 7 7 6 7 6 8 6 6 7 t 3 1 7 q 2 < ; 2 5 5 5 4 = 1 1 1 1 1 = 6 7 7 7 = , 1 ",
"1 1 1 0 & 0 &.0 1 < 1 1 < 6 0 & i v 5 1 1 5 t > , ; ; - - ; - ; - - - - - - < 1 q 2 < 1 1 : ; ; ; - 1 1 1 1 1 1 < - - - - , 1 1 ",
"e e e p 6 p >.s w r r w r u s 6 x R y e 5 < 3 , 1 4 < 2 9 2 1 1 < 2 3 < < 8 6 1 3 < 3 q e e e e e e e e e e e e w w w r r r r 1 ",
"k.k.k.k.k.k.k.d.! ^ _ ^ / ) >.a.p p p d 0 - < 2 < w & 7 ! 6 1 1 2 < 6 , > ! f 1 < < w M p f a i p p p f p p p p g s s i p f d = ",
"k.k.k.k.k.k.d.K j j j j j W 4.t 1 1 2 4 4 - 1 1 1 r = 4 i 7 2 < < 2 6 : , ~ f < 1 1 e p 5 k i 2 1 3 y h 3 1 1 0 z 7 1 1 5 k u @ ",
"k.k.k.k.k.0.Z j j j j j ^ ] t 1 1 1 < 4 4 ; 1 1 7 < = < < : 9 0 9 8 : , < q 4 6 1 1 q f k t > 1 1 a k 3 1 1 7 c 7 > 1 4 k r > @ ",
"k.k.k.k.d.K k j j j j M >.t 2 < 1 1 < 3 4 > 7 7 4 9 > < < : % # # % > < 6 x t 4 7 6 i d q : > 1 1 0 5 - 1 1 4 r & 1 1 3 e : > @ ",
"k.k.k.d.K j j j j j b 4.t < 1 1 1 1 2 4 4 & = - 9 c s ; < < 2 < 2 < < 6 v x i = - - 8 i * > 2 1 1 - - 1 1 1 , & 1 1 1 , = > 1 @ ",
"k.k.p.n j j j j l ! 7.q 1 1 1 1 1 1 1 4 4 - 1 1 1 h M d 8 ^ >.2.<.<._ b x 7 * 1 1 1 e p 1 1 1 1 1 1 1 1 1 1 1 1 1 1 1 1 1 2 1 @ ",
"k.a.R j j j j j ! &.t 1 1 1 1 1 1 1 1 4 4 s ^ u 1 3 u ~ ! 9 5 4 4 5 0 ~ y ; < 1 i W +.p 3 a y 1 1 2 0 a 2 1 1 4 k 5 1 1 2 a y @ ",
"d.K l j j j k v 4.u 2 1 1 1 1 1 1 1 1 3 4 0 f b 8 < 6 b i < > > , > , u i , 1 8 M h M a y k q 1 1 e k u 2 1 3 h f 4 1 2 y k q @ ",
"<.j j j j j c 0.t 4 4 4 4 4 4 4 4 4 4 q 3 = > 4 y > w M < > > > > > , 1 3 - 8 W 5 1 e a p 2 - 1 1 u t ; 1 2 5 a ; > 1 4 p 2 - @ ",
"! 6 7 7 7 7 7 0 4 5 4 4 4 4 4 4 4 4 4 3 + * > > 7 - w n 2 > > > > > > 1 4 - e W 1 1 e i = > < 1 1 = = 1 1 1 > * > 1 2 > * : 1 @ ",
"7.n B b B x k k k s > B A A B A z z z z 7 * > > 7 - r M 1 > > > > > > 1 3 - e W 1 1 e p 1 2 1 1 1 1 1 2 1 1 1 1 2 1 1 1 1 1 1 @ ",
"k.k.k.k.p.K c c c f 4 l.l.l.l.a.v v x v 8 * > > 7 - q M 1 > > > > > > 1 4 - e W 1 1 e p 1 5 5 1 1 1 4 5 1 1 1 1 5 3 1 1 2 5 5 @ ",
"k.k.k.d.P k k j k p 4 l.l.l.a.c j j j l 7 & > 8 = < w M 1 > > > > > , 1 4 ; 5 4 0 1 e p 0 v a 1 1 4 a k 4 1 1 y B 5 2 2 0 x a @ ",
"l.l.p.m j j j j c d 4 h.k.-.x j j j j v 8 < 7 = 1 < 5 5 2 < > > > > < 6 - , 1 1 = 5 i h z 5 * 1 < z a ; > < 5 v , > , 5 z 5 * # ",
"l.r.~ j j j j x 0.g 4 k.<.x j k j j D 1.8 % - , < 9 x j 2 6 q q w q 7 8 s : > 1 , - 5 a = > < 1 < - = > 2 2 2 & : 2 2 1 * ; 1 @ ",
"p.~ l j k j l >.l t 4 0.c j j j j D <.f 5 3 r q 5 v v y : * * & % & = i b r : , e e a p > < 1 1 2 : : 2 2 , , ; 2 1 1 , > , 2 @ ",
"$.j j j l c >.v 1 r 4 / k j j j R ,.i 4 3 i D D D x t ; , 2 5 7 7 6 1 3 f v d d Z U | a 1 4 3 1 < 2 2 4 < 2 2 2 4 2 1 1 2 4 2 @ ",
"3.j j j c <.l 2 1 r 4 ! j j j n <.q 2 4 3 > 4 4 l v 1 < 1 i U ~ ^ v 2 < 3 j ~ l 3 3 t a 5 h i 1 < 2 y a 3 2 < 0 z 5 < 2 5 k u @ ",
"3.j j c 3.i 2 1 2 r 4 / j l K 4.8 1 1 6 4 ; 1 1 3 s : 2 u j 9 6 7 7 4 - 1 l l 3 1 1 e a z t > 1 2 a z 4 , 2 5 v 5 > 2 4 k r > @ ",
"<.j j _ m 7 6 6 r 0 1 / j x >.j 6 7 6 y < ; 1 1 1 e & 5 U 9 2 1 1 2 7 > , U f 1 1 1 t a q : > 1 2 q 5 ; 2 < 4 e * 2 2 2 e > > @ ",
"c - - ; - - ; ; ; o - t ; - - = - - - * . - 1 1 1 e & 7 ~ 7 < 1 1 < 6 > > U f 1 2 2 e 5 . O @ @ @ . . @ @ @ O . @ @ @ + . + @ . "
};
